<svg xmlns="http://www.w3.org/2000/svg" version="1.1" xmlns:xlink="http://www.w3.org/1999/xlink" xmlns:svgjs="http://svgjs.dev/svgjs" width="2000" height="328" viewBox="0 0 2000 328"><g transform="matrix(1,0,0,1,-1.2121212121212466,-1.3269089536871945)"><svg viewBox="0 0 396 65" data-background-color="#ffffff" preserveAspectRatio="xMidYMid meet" height="328" width="2000" xmlns="http://www.w3.org/2000/svg" xmlns:xlink="http://www.w3.org/1999/xlink"><g id="tight-bounds" transform="matrix(1,0,0,1,0.2400000000000091,0.2629545182611821)"><svg viewBox="0 0 395.52 64.47409096347762" height="64.47409096347762" width="395.52"><g><svg viewBox="0 0 521.6200628326669 85.02978200710022" height="64.47409096347762" width="395.52"><g transform="matrix(1,0,0,1,126.10006283266688,12.056170678902156)"><svg viewBox="0 0 395.52 60.91744064929591" height="60.91744064929591" width="395.52"><g id="textblocktransform"><svg viewBox="0 0 395.52 60.91744064929591" height="60.91744064929591" width="395.52" id="textblock"><g><svg viewBox="0 0 395.52 60.91744064929591" height="60.91744064929591" width="395.52"><g transform="matrix(1,0,0,1,0,0)"><svg width="395.52" viewBox="2.072430627787 -34.65 295.11141994462696 44.888180969728" height="60.91744064929591" data-palette-color="#fafafa"><g class="wordmark-text-0" data-fill-palette-color="primary" id="text-0"><path d="M4.8 3L3.05 1.65Q2.15 1.15 2.08 0.55 2-0.05 2.75-1.55 3.5-3.05 5.1-6.2L5.1-6.2Q6.3-8.45 6.73-9.73 7.15-11 7.2-11.55 7.25-12.1 7.25-12.25L7.25-12.25Q7.15-12.7 7.35-12.98 7.55-13.25 8-13.45L8-13.45Q8.25-13.7 9.15-14.35 10.05-15 10.55-15.9L10.55-15.9Q11-16.95 11.58-18.05 12.15-19.15 13.1-20.83 14.05-22.5 15.65-25.2L15.65-25.2Q16.65-26.95 18.03-29.15 19.4-31.35 20.75-33.15L20.75-33.15Q21.3-33.85 21.9-34.25 22.5-34.65 22.95-34.65L22.95-34.65Q24.05-34.65 25.15-34.08 26.25-33.5 27.1-32.65 27.95-31.8 28.25-31.05L28.25-31.05Q28.5-30.65 28.45-29.35 28.4-28.05 28.25-26.2 28.1-24.35 27.9-22.25L27.9-22.25Q27.75-20.2 27.45-17.4 27.15-14.6 26.88-11.55 26.6-8.5 26.45-5.68 26.3-2.85 26.45-0.75L26.45-0.75Q26.5-0.3 26.45 0.1 26.4 0.5 26.4 0.75L26.4 0.75Q26.1 1.05 25.1 1.03 24.1 1 23.15 0.7 22.2 0.4 22.1-0.05L22.1-0.05Q21.95-0.2 21.9-0.3 21.85-0.4 21.9-1.28 21.95-2.15 22.05-4.5L22.05-4.5 22.3-12.15 21.65-12.1Q21.2-12.1 20.03-12 18.85-11.9 17.48-11.73 16.1-11.55 14.95-11.38 13.8-11.2 13.35-11.05L13.35-11.05Q12.9-11.05 12.28-10.45 11.65-9.85 11.1-8.9L11.1-8.9Q10.9-8.2 10.38-7.43 9.85-6.65 9.85-6.4L9.85-6.4Q9.5-6.15 9.28-5.8 9.05-5.45 9.05-5.45L9.05-5.45Q9.05-5.15 8.63-3.98 8.2-2.8 7.53-1.38 6.85 0.05 6.15 1.1L6.15 1.1 4.8 3ZM15-15.55L15-15.55Q15-15.55 15.55-15.65 16.1-15.75 16.88-15.88 17.65-16 18.25-16L18.25-16Q19.4-16.3 20.18-16.45 20.95-16.6 21.45-16.63 21.95-16.65 22.25-16.5L22.25-16.5Q22.45-16.25 22.63-16.2 22.8-16.15 22.8-16.15L22.8-16.15Q22.85-16.25 23-17.2 23.15-18.15 23.35-19.55 23.55-20.95 23.75-22.48 23.95-24 24.1-25.33 24.25-26.65 24.3-27.4L24.3-27.4Q24.35-28.35 24.25-29.13 24.15-29.9 24.15-29.9L24.15-29.9Q23.85-29.9 23.03-28.83 22.2-27.75 21.13-25.98 20.05-24.2 19-22.15L19-22.15Q18.5-21.2 18.07-20.65 17.65-20.1 17.4-20.1L17.4-20.1Q17.3-20 16.88-19.33 16.45-18.65 15.98-17.82 15.5-17 15.18-16.32 14.85-15.65 15-15.55ZM47.7-1.2L47.7-1.2Q46.6-1.3 45.87-1.68 45.15-2.05 44.7-3.2L44.7-3.2Q44.5-4 44.52-4.88 44.55-5.75 44.65-6.58 44.75-7.4 44.75-8L44.75-8Q44.75-8.1 44.75-8.4 44.75-8.7 44.75-8.95L44.75-8.95Q44.65-9.7 44.37-9.88 44.1-10.05 43.45-9.8L43.45-9.8Q42.4-9.3 41.17-8.47 39.95-7.65 38.62-6.58 37.3-5.5 35.9-4.3L35.9-4.3Q34.8-3.1 34.27-2.35 33.75-1.6 33.2-1.6L33.2-1.6Q32.8-1.4 32.35-1.7 31.9-2 31.4-2.4L31.4-2.4Q31.05-2.8 30.57-3.43 30.1-4.05 30-4.25L30-4.25Q30-5.05 30.12-5.7 30.25-6.35 30.52-7.05 30.8-7.75 31.2-8.65L31.2-8.65Q31.4-9 31.57-9.38 31.75-9.75 32-10.2L32-10.2Q32.2-10.9 32.57-11.8 32.95-12.7 33.3-13.5L33.3-13.5Q33.85-14.8 34.15-15.75 34.45-16.7 34.65-17.8L34.65-17.8Q34.6-17.9 34.7-18.1 34.8-18.3 35-18.35L35-18.35 35.05-18.35 35.1-18.35Q35.45-18.6 36.42-18.43 37.4-18.25 37.9-17.85L37.9-17.85Q38.95-16.95 38.9-15.5 38.85-14.05 37.4-11.7L37.4-11.7Q37.05-10.9 36.67-10.23 36.3-9.55 36.3-9.3L36.3-9.3Q36.3-9.3 36.7-9.6 37.1-9.9 37.65-10.33 38.2-10.75 38.6-11L38.6-11Q38.85-11.25 39.7-11.93 40.55-12.6 41.55-13.35 42.55-14.1 43.15-14.5L43.15-14.5Q43.7-14.9 44.55-15.33 45.4-15.75 45.6-15.75L45.6-15.75Q46.1-15.75 46.82-15.4 47.55-15.05 48.17-14.58 48.8-14.1 48.9-13.7L48.9-13.7Q48.9-13.5 48.85-13.18 48.8-12.85 48.8-12.6L48.8-12.6Q48.75-11.8 48.77-10.68 48.8-9.55 48.8-8.43 48.8-7.3 48.6-6.4L48.6-6.4Q48.6-6.4 48.65-6.33 48.7-6.25 48.75-6.1L48.75-6.1Q48.7-6.05 48.72-5.93 48.75-5.8 48.75-5.8L48.75-5.8Q48.85-5.45 48.97-5.1 49.1-4.75 49.3-4.33 49.5-3.9 49.75-3.25L49.75-3.25Q49.7-2.6 49.02-1.98 48.35-1.35 47.7-1.2ZM53.65-0.85L53.65-0.85Q53.25-1.25 53.07-2.05 52.9-2.85 52.95-3.63 53-4.4 53.2-4.8L53.2-4.8Q53.2-5.2 53.32-5.43 53.45-5.65 53.4-5.85L53.4-5.85Q53.35-6.05 53.5-6.55 53.65-7.05 53.8-7.5L53.8-7.5Q54.15-8.3 54.6-9.58 55.05-10.85 55.5-12.18 55.95-13.5 56.25-14.48 56.55-15.45 56.6-15.65L56.6-15.65Q56.6-16.25 57.4-16.3L57.4-16.3Q58-16.5 58.85-15.8 59.7-15.1 60.2-14.3L60.2-14.3Q60.6-13.9 60.5-13.25 60.4-12.6 59.85-11.4L59.85-11.4Q59.65-11 59.37-10.08 59.1-9.15 59-8.55L59-8.55Q58.8-8.15 58.52-7.43 58.25-6.7 58.05-6.05L58.05-6.05Q57.95-5.8 57.85-5.13 57.75-4.45 57.6-3.75 57.45-3.05 57.2-2.65L57.2-2.65Q56.75-0.6 55.62-0.25 54.5 0.1 53.65-0.85ZM59.05-20.9L59.05-20.9Q58.5-21.3 58.22-21.88 57.95-22.45 57.92-22.9 57.9-23.35 58-23.45L58-23.45Q58.5-24 58.87-24.9 59.25-25.8 59.7-26.55L59.7-26.55Q59.8-26.7 59.97-26.98 60.15-27.25 60.35-27.3L60.35-27.3Q60.95-27.7 62.02-27.25 63.1-26.8 63.6-26L63.6-26Q64.05-25.05 63.87-24.05 63.7-23.05 62.8-21.95L62.8-21.95Q62.05-20.95 60.9-20.68 59.75-20.4 59.05-20.9ZM86.59-1.2L86.59-1.2Q86.24-1.3 85.49-1.85 84.74-2.4 84.17-3.5 83.59-4.6 83.64-6.35L83.64-6.35Q83.69-7.85 83.87-8.47 84.04-9.1 83.69-9.15L83.69-9.15Q83.44-9.2 82.69-8.7 81.94-8.2 80.74-7.1 79.54-6 77.84-4.2L77.84-4.2Q77.24-3.7 76.52-2.98 75.79-2.25 75.07-1.9 74.34-1.55 73.79-2.05L73.79-2.05 73.29-2.5Q72.94-2.8 72.69-3.3 72.44-3.8 72.54-4.15L72.54-4.15 73.94-8.05Q74.54-9.35 74.77-9.95 74.99-10.55 74.97-10.7 74.94-10.85 74.69-10.8L74.69-10.8Q74.39-10.75 73.84-10.28 73.29-9.8 73.09-9.5L73.09-9.5Q72.89-9.5 72.57-9.1 72.24-8.7 71.94-8.4L71.94-8.4Q71.64-8.1 70.89-7.28 70.14-6.45 69.29-5.55L69.29-5.55Q68.64-4.95 67.79-3.95 66.94-2.95 66.29-2.15 65.64-1.35 65.49-1.35L65.49-1.35Q64.59-1.4 63.87-1.95 63.14-2.5 62.89-3.3L62.89-3.3Q62.59-3.85 62.84-5.33 63.09-6.8 63.79-10.05L63.79-10.05Q63.99-10.8 64.17-11.35 64.34-11.9 64.54-12.45 64.74-13 65.02-13.7 65.29-14.4 65.74-15.4L65.74-15.4Q65.99-16.1 65.94-16.73 65.89-17.35 65.84-17.75L65.84-17.75Q65.84-18.5 66.32-18.95 66.79-19.4 67.39-19.58 67.99-19.75 68.34-19.65L68.34-19.65Q69.74-19.5 70.24-18.65 70.74-17.8 70.79-17L70.79-17Q70.84-16.25 70.59-15.65 70.34-15.05 70.19-14.65L70.19-14.65 69.64-13.3Q69.14-12.15 68.92-11.63 68.69-11.1 68.67-10.93 68.64-10.75 68.64-10.6L68.64-10.6Q68.69-10.45 69.09-10.75 69.49-11.05 70.07-11.58 70.64-12.1 71.14-12.5L71.14-12.5Q72.04-13.25 73.07-14.03 74.09-14.8 75.09-15.4 76.09-16 76.74-16.2L76.74-16.2Q77.59-16.05 78.32-15.35 79.04-14.65 79.24-14.15L79.24-14.15Q79.49-13.4 79.32-12.8 79.14-12.2 79.04-11.7L79.04-11.7Q78.99-11.5 78.84-10.95 78.69-10.4 78.54-9.93 78.39-9.45 78.39-9.45L78.39-9.45Q78.39-9.45 78.69-9.75 78.99-10.05 79.49-10.48 79.99-10.9 80.49-11.25L80.49-11.25Q82.99-13.15 84.47-13.68 85.94-14.2 86.99-12.8L86.99-12.8Q87.59-12.25 87.77-11.3 87.94-10.35 87.94-8.75L87.94-8.75Q87.99-8.1 88.07-7.3 88.14-6.5 88.27-5.9 88.39-5.3 88.49-5.15L88.49-5.15Q88.64-4.95 89.04-4.78 89.44-4.6 89.79-4.5L89.79-4.5Q90.49-4.15 90.57-3.23 90.64-2.3 89.84-1.8L89.84-1.8Q89.09-1.35 88.27-1.25 87.44-1.15 86.59-1.2ZM101.39-1L101.39-1Q99.89-0.15 98.22-0.03 96.54 0.1 95.09-0.48 93.64-1.05 92.74-2.2L92.74-2.2Q92.24-2.85 91.79-4.28 91.34-5.7 91.64-8.15L91.64-8.15Q91.94-10.45 93.07-12.8 94.19-15.15 95.84-16.95 97.49-18.75 99.44-19.4L99.44-19.4Q100.14-19.65 100.87-19.78 101.59-19.9 102.79-19.8L102.79-19.8Q103.94-19.65 104.84-19.23 105.74-18.8 106.14-18.3L106.14-18.3Q106.94-17.5 107.19-16.75 107.44-16 107.39-15.3L107.39-15.3Q107.14-13.7 105.97-11.85 104.79-10 102.69-9.1L102.69-9.1Q101.84-8.75 100.69-8.65 99.54-8.55 97.54-8.95L97.54-8.95Q96.34-9.2 95.97-8.7 95.59-8.2 95.64-6.75L95.64-6.75Q95.74-5.85 96.07-5.18 96.39-4.5 97.29-4.25L97.29-4.25Q98.44-4.05 98.94-4.23 99.44-4.4 100.19-4.75L100.19-4.75Q100.59-5 100.97-5.3 101.34-5.6 101.72-5.9 102.09-6.2 102.34-6.35L102.34-6.35Q102.59-6.55 102.84-6.6 103.09-6.65 103.34-6.65L103.34-6.65Q103.89-6.6 104.39-6.05 104.89-5.5 105.04-5L105.04-5Q105.04-4.6 104.54-3.88 104.04-3.15 103.22-2.38 102.39-1.6 101.39-1ZM100.74-12.15L100.74-12.15Q101.09-12.3 101.77-12.85 102.44-13.4 102.99-14.03 103.54-14.65 103.54-15L103.54-15Q103.54-15.55 102.82-15.95 102.09-16.35 100.94-16.1L100.94-16.1Q100.54-16 99.99-15.55 99.44-15.1 98.89-14.53 98.34-13.95 97.94-13.43 97.54-12.9 97.39-12.6L97.39-12.6Q97.59-12.35 98.19-12.2 98.79-12.05 99.52-12.05 100.24-12.05 100.74-12.15Z" fill="#fafafa" data-fill-palette-color="primary"></path><path d="M125.248 2.85L125.248 2.85Q124.648 2.85 124.248 2.2L124.248 2.2Q123.948 1.9 123.598 1.25 123.248 0.6 123.368-0.88 123.498-2.35 124.448-5.2L124.448-5.2Q124.948-7.1 125.248-7.98 125.548-8.85 125.548-9.25L125.548-9.25Q125.548-9.8 125.668-10.18 125.798-10.55 125.798-10.9L125.798-10.9Q126.098-10.9 126.398-11.45 126.698-12 126.898-12.95L126.898-12.95Q127.098-13.8 127.268-14.33 127.448-14.85 127.448-15.05L127.448-15.05Q127.698-15.45 127.968-16.3 128.248-17.15 128.848-18.35L128.848-18.35Q129.248-19.85 129.748-21.48 130.248-23.1 130.768-24.53 131.298-25.95 131.648-26.75L131.648-26.75Q132.198-28.3 132.498-28.93 132.798-29.55 132.498-29.75L132.498-29.75Q132.148-30 132.168-31.03 132.198-32.05 133.098-32.8L133.098-32.8Q133.648-33.45 134.498-33.73 135.348-34 136.448-34 137.548-34 138.748-33.9L138.748-33.9Q139.648-33.85 140.668-33.85 141.698-33.85 141.948-33.85L141.948-33.85Q142.398-33.65 143.048-33.4 143.698-33.15 144.218-32.93 144.748-32.7 144.748-32.55L144.748-32.55Q144.748-32.25 144.968-32.18 145.198-32.1 145.448-32.05L145.448-32.05Q145.798-32.05 146.598-31.43 147.398-30.8 148.218-29.93 149.048-29.05 149.398-28.2L149.398-28.2Q149.798-27.35 150.068-26.6 150.348-25.85 150.098-24.45L150.098-24.45Q150.048-23.7 149.868-22.95 149.698-22.2 149.498-21.95L149.498-21.95Q149.198-21.75 148.948-21.45 148.698-21.15 148.698-20.9L148.698-20.9Q148.698-20.7 148.298-19.93 147.898-19.15 147.298-18.18 146.698-17.2 145.998-16.25 145.298-15.3 144.698-14.75L144.698-14.75Q144.048-13.95 143.168-13.25 142.298-12.55 141.598-12.1L141.598-12.1Q140.298-11.5 138.618-10.95 136.948-10.4 135.398-10.08 133.848-9.75 132.898-9.8L132.898-9.8Q131.448-9.6 130.998-9.43 130.548-9.25 130.348-8.55L130.348-8.55Q130.098-7.9 129.868-7.2 129.648-6.5 129.648-6.2L129.648-6.2Q129.548-6 129.218-5.1 128.898-4.2 128.468-3 128.048-1.8 127.698-0.6 127.348 0.6 127.148 1.45L127.148 1.45Q126.948 2.15 126.318 2.5 125.698 2.85 125.248 2.85ZM132.348-13.85L132.348-13.85Q132.548-13.65 133.648-13.8 134.748-13.95 136.298-14.55L136.298-14.55Q137.298-14.9 138.318-15.4 139.348-15.9 140.298-16.5L140.298-16.5Q140.798-16.85 141.348-17.38 141.898-17.9 142.898-19.15L142.898-19.15Q143.048-19.4 143.418-20.13 143.798-20.85 144.098-21.5L144.098-21.5Q144.548-22.2 144.998-23.58 145.448-24.95 145.198-25.85L145.198-25.85Q144.948-27.15 144.198-28.03 143.448-28.9 142.298-29.3L142.298-29.3Q141.198-29.5 140.468-29.55 139.748-29.6 138.898-29.45L138.898-29.45Q138.098-29.2 137.768-28.75 137.448-28.3 136.848-26.85L136.848-26.85Q136.498-26.15 135.848-24.93 135.198-23.7 134.748-22.45L134.748-22.45Q133.848-19.15 133.168-17.4 132.498-15.65 132.298-15.1L132.298-15.1Q132.348-14.55 132.248-14.33 132.148-14.1 132.348-13.85ZM148.048-0.85L148.048-0.85Q147.648-1.25 147.468-2.05 147.298-2.85 147.348-3.63 147.398-4.4 147.598-4.8L147.598-4.8Q147.598-5.2 147.718-5.43 147.848-5.65 147.798-5.85L147.798-5.85Q147.748-6.05 147.898-6.55 148.048-7.05 148.198-7.5L148.198-7.5Q148.548-8.3 148.998-9.58 149.448-10.85 149.898-12.18 150.348-13.5 150.648-14.48 150.948-15.45 150.998-15.65L150.998-15.65Q150.998-16.25 151.798-16.3L151.798-16.3Q152.398-16.5 153.248-15.8 154.098-15.1 154.598-14.3L154.598-14.3Q154.998-13.9 154.898-13.25 154.798-12.6 154.248-11.4L154.248-11.4Q154.048-11 153.768-10.08 153.498-9.15 153.398-8.55L153.398-8.55Q153.198-8.15 152.918-7.43 152.648-6.7 152.448-6.05L152.448-6.05Q152.348-5.8 152.248-5.13 152.148-4.45 151.998-3.75 151.848-3.05 151.598-2.65L151.598-2.65Q151.148-0.6 150.018-0.25 148.898 0.1 148.048-0.85ZM153.448-20.9L153.448-20.9Q152.898-21.3 152.618-21.88 152.348-22.45 152.318-22.9 152.298-23.35 152.398-23.45L152.398-23.45Q152.898-24 153.268-24.9 153.648-25.8 154.098-26.55L154.098-26.55Q154.198-26.7 154.368-26.98 154.548-27.25 154.748-27.3L154.748-27.3Q155.348-27.7 156.418-27.25 157.498-26.8 157.998-26L157.998-26Q158.448-25.05 158.268-24.05 158.098-23.05 157.198-21.95L157.198-21.95Q156.448-20.95 155.298-20.68 154.148-20.4 153.448-20.9ZM159.788 0.55L159.788 0.55Q158.838 0.8 158.088 0.03 157.338-0.75 157.038-2.25 156.738-3.75 157.138-5.6L157.138-5.6Q157.388-6.2 157.538-6.78 157.688-7.35 157.688-7.7L157.688-7.7Q157.788-8.2 158.088-9.18 158.388-10.15 158.738-11.2 159.088-12.25 159.418-13.08 159.738-13.9 159.838-14.1L159.838-14.1Q160.038-14.1 160.188-14.45 160.338-14.8 160.338-15.15L160.338-15.15Q160.338-15.55 160.518-16.05 160.688-16.55 160.888-16.75L160.888-16.75Q160.888-17 161.018-17.32 161.138-17.65 161.138-17.85L161.138-17.85Q161.138-18.05 161.268-18.25 161.388-18.45 161.388-18.65L161.388-18.65Q161.738-19.3 162.318-20.73 162.888-22.15 163.568-23.9 164.238-25.65 164.838-27.35 165.438-29.05 165.818-30.23 166.188-31.4 166.188-31.65L166.188-31.65Q166.188-32.05 166.488-32.4 166.788-32.75 167.188-32.75L167.188-32.75Q167.338-32.9 167.888-32.98 168.438-33.05 168.638-33.05L168.638-33.05Q168.638-33.05 168.838-32.85 169.038-32.65 169.438-32.25L169.438-32.25Q169.838-31.9 170.218-31.45 170.588-31 170.588-30.4L170.588-30.4Q170.588-29.75 170.418-29.15 170.238-28.55 169.788-27.53 169.338-26.5 168.388-24.5L168.388-24.5Q167.988-23.5 167.538-22.63 167.088-21.75 167.088-21.55L167.088-21.55Q167.088-21.35 166.918-20.95 166.738-20.55 166.538-19.95L166.538-19.95Q166.338-19.55 165.988-18.78 165.638-18 165.268-17.13 164.888-16.25 164.638-15.63 164.388-15 164.388-14.9L164.388-14.9Q164.388-14.7 164.368-14.5 164.338-14.3 164.138-14.1L164.138-14.1Q163.938-14.1 163.918-13.83 163.888-13.55 163.888-13.55L163.888-13.55Q163.888-13.05 163.088-10.9L163.088-10.9Q162.288-8.15 161.618-5.85 160.938-3.55 160.938-2.15L160.938-2.15Q160.938-0.95 160.568-0.3 160.188 0.35 159.788 0.55ZM172.288 10L172.288 10Q170.888 10.55 169.368 9.83 167.838 9.1 166.738 7.55L166.738 7.55Q166.538 7.25 166.138 6.48 165.738 5.7 165.368 4.8 164.988 3.9 164.818 3.25 164.638 2.6 164.788 2.5L164.788 2.5Q164.988 1.95 165.688 1.85 166.388 1.75 167.088 1.93 167.788 2.1 167.888 2.4L167.888 2.4Q168.038 2.75 168.188 3.13 168.338 3.5 168.568 3.83 168.788 4.15 168.988 4.4L168.988 4.4Q169.538 5.25 170.188 5.58 170.838 5.9 171.188 5.65L171.188 5.65Q172.038 5 172.458 4.13 172.888 3.25 173.588 1.05L173.588 1.05Q174.138-0.8 174.538-2.15 174.938-3.5 175.388-4.65L175.388-4.65Q175.538-5.25 175.768-5.68 175.988-6.1 176.188-6.3L176.188-6.3 176.488-6.3Q175.388-5.6 174.638-4.9 173.888-4.2 172.588-3.65L172.588-3.65Q172.288-3.3 171.118-3.23 169.938-3.15 168.838-3.5L168.838-3.5Q168.138-3.9 167.718-4.33 167.288-4.75 167.018-5.3 166.738-5.85 166.438-6.6L166.438-6.6Q166.088-7.35 166.338-9.05 166.588-10.75 167.238-12.45L167.238-12.45Q167.838-13.7 168.988-15.15 170.138-16.6 171.438-17.78 172.738-18.95 173.788-19.25L173.788-19.25Q174.188-19.45 175.188-19.73 176.188-20 177.088-19.75L177.088-19.75Q177.938-19.65 178.388-19.38 178.838-19.1 179.838-18.25L179.838-18.25Q180.488-17.6 181.438-16.57 182.388-15.55 182.638-14.85L182.638-14.85Q182.988-14.1 182.788-13.23 182.588-12.35 182.088-11.7L182.088-11.7Q181.638-11.05 181.138-10.4 180.638-9.75 180.388-8.6L180.388-8.6Q180.138-7.1 179.438-5.23 178.738-3.35 178.338-1.75L178.338-1.75 177.538 1.35Q176.288 5.6 174.788 7.53 173.288 9.45 172.288 10ZM171.238-7.2L171.238-7.2Q172.238-7.25 172.958-7.43 173.688-7.6 174.338-8.22 174.988-8.85 175.838-10.15L175.838-10.15Q176.688-11.35 177.038-12.35 177.388-13.35 177.288-14.6L177.288-14.6Q177.238-15.4 176.838-15.65 176.438-15.9 175.788-15.8L175.788-15.8Q174.838-15.65 174.088-15.03 173.338-14.4 172.338-13.1L172.338-13.1Q171.588-12.1 171.088-10.7L171.088-10.7Q170.588-9.2 170.668-8.3 170.738-7.4 171.238-7.2ZM185.738-1.35L185.738-1.35Q185.288-1.7 184.758-2.25 184.238-2.8 184.388-3.8L184.388-3.8Q184.538-5.2 184.788-6.28 185.038-7.35 185.388-8.75L185.388-8.75Q185.488-9.35 185.908-10.8 186.338-12.25 186.938-13.95 187.538-15.65 188.188-17.18 188.838-18.7 189.338-19.45L189.338-19.45Q189.888-19.95 190.958-19.95 192.038-19.95 192.438-19.55L192.438-19.55Q192.988-19.1 192.788-17.98 192.588-16.85 191.388-14.5L191.388-14.5Q191.138-13.9 190.758-13.23 190.388-12.55 190.238-12.13 190.088-11.7 190.338-11.75L190.338-11.75Q190.638-12.3 191.438-13.03 192.238-13.75 193.138-14.45 194.038-15.15 194.838-15.7 195.638-16.25 195.938-16.4L195.938-16.4Q196.338-16.65 196.858-16.82 197.388-17 197.588-17.1L197.588-17.1Q198.738-17.65 200.108-17.53 201.488-17.4 201.788-16.65L201.788-16.65Q201.838-16.25 202.108-16.05 202.388-15.85 202.388-15.85L202.388-15.85Q202.588-15.85 202.608-15.7 202.638-15.55 202.638-15.55L202.638-15.55Q202.638-15.2 201.958-14.55 201.288-13.9 200.488-13.85L200.488-13.85Q199.838-13.8 199.338-13.6 198.838-13.4 198.138-13.1L198.138-13.1Q196.238-12 194.708-11.15 193.188-10.3 191.588-8.55L191.588-8.55Q191.238-8.15 190.838-7.8 190.438-7.45 190.038-6.8L190.038-6.8Q189.788-6.55 189.538-5.7 189.288-4.85 189.108-4.08 188.938-3.3 188.938-3.15L188.938-3.15Q188.938-3.15 188.788-2.68 188.638-2.2 188.288-1.75L188.288-1.75Q187.688-0.95 187.108-0.75 186.538-0.55 185.738-1.35ZM202.938-0.85L202.938-0.85Q202.538-1.25 202.358-2.05 202.188-2.85 202.238-3.63 202.288-4.4 202.488-4.8L202.488-4.8Q202.488-5.2 202.608-5.43 202.738-5.65 202.688-5.85L202.688-5.85Q202.628-6.05 202.788-6.55 202.938-7.05 203.088-7.5L203.088-7.5Q203.438-8.3 203.878-9.58 204.338-10.85 204.788-12.18 205.238-13.5 205.538-14.48 205.838-15.45 205.878-15.65L205.878-15.65Q205.878-16.25 206.688-16.3L206.688-16.3Q207.288-16.5 208.138-15.8 208.988-15.1 209.488-14.3L209.488-14.3Q209.888-13.9 209.788-13.25 209.688-12.6 209.138-11.4L209.138-11.4Q208.938-11 208.658-10.08 208.388-9.15 208.288-8.55L208.288-8.55Q208.088-8.15 207.808-7.43 207.538-6.7 207.338-6.05L207.338-6.05Q207.238-5.8 207.128-5.13 207.038-4.45 206.878-3.75 206.738-3.05 206.488-2.65L206.488-2.65Q206.038-0.6 204.908-0.25 203.788 0.1 202.938-0.85ZM208.338-20.9L208.338-20.9Q207.788-21.3 207.508-21.88 207.238-22.45 207.208-22.9 207.188-23.35 207.288-23.45L207.288-23.45Q207.788-24 208.158-24.9 208.538-25.8 208.988-26.55L208.988-26.55Q209.088-26.7 209.258-26.98 209.438-27.25 209.638-27.3L209.638-27.3Q210.238-27.7 211.308-27.25 212.388-26.8 212.888-26L212.888-26Q213.338-25.05 213.158-24.05 212.988-23.05 212.088-21.95L212.088-21.95Q211.338-20.95 210.188-20.68 209.038-20.4 208.338-20.9ZM235.878-1.2L235.878-1.2Q235.528-1.3 234.778-1.85 234.028-2.4 233.458-3.5 232.878-4.6 232.928-6.35L232.928-6.35Q232.978-7.85 233.158-8.47 233.328-9.1 232.978-9.15L232.978-9.15Q232.728-9.2 231.978-8.7 231.228-8.2 230.028-7.1 228.828-6 227.128-4.2L227.128-4.2Q226.528-3.7 225.808-2.98 225.078-2.25 224.358-1.9 223.628-1.55 223.078-2.05L223.078-2.05 222.578-2.5Q222.228-2.8 221.978-3.3 221.728-3.8 221.828-4.15L221.828-4.15 223.228-8.05Q223.828-9.35 224.058-9.95 224.278-10.55 224.258-10.7 224.228-10.85 223.978-10.8L223.978-10.8Q223.678-10.75 223.128-10.28 222.578-9.8 222.378-9.5L222.378-9.5Q222.178-9.5 221.858-9.1 221.528-8.7 221.228-8.4L221.228-8.4Q220.928-8.1 220.178-7.28 219.428-6.45 218.578-5.55L218.578-5.55Q217.928-4.95 217.078-3.95 216.228-2.95 215.578-2.15 214.928-1.35 214.778-1.35L214.778-1.35Q213.878-1.4 213.158-1.95 212.428-2.5 212.178-3.3L212.178-3.3Q211.878-3.85 212.128-5.33 212.378-6.8 213.078-10.05L213.078-10.05Q213.278-10.8 213.458-11.35 213.628-11.9 213.828-12.45 214.028-13 214.308-13.7 214.578-14.4 215.028-15.4L215.028-15.4Q215.278-16.1 215.228-16.73 215.178-17.35 215.128-17.75L215.128-17.75Q215.128-18.5 215.608-18.95 216.078-19.4 216.678-19.58 217.278-19.75 217.628-19.65L217.628-19.65Q219.028-19.5 219.528-18.65 220.028-17.8 220.078-17L220.078-17Q220.128-16.25 219.878-15.65 219.628-15.05 219.478-14.65L219.478-14.65 218.928-13.3Q218.428-12.15 218.208-11.63 217.978-11.1 217.958-10.93 217.928-10.75 217.928-10.6L217.928-10.6Q217.978-10.45 218.378-10.75 218.778-11.05 219.358-11.58 219.928-12.1 220.428-12.5L220.428-12.5Q221.328-13.25 222.358-14.03 223.378-14.8 224.378-15.4 225.378-16 226.028-16.2L226.028-16.2Q226.878-16.05 227.608-15.35 228.328-14.65 228.528-14.15L228.528-14.15Q228.778-13.4 228.608-12.8 228.428-12.2 228.328-11.7L228.328-11.7Q228.278-11.5 228.128-10.95 227.978-10.4 227.828-9.93 227.678-9.45 227.678-9.45L227.678-9.45Q227.678-9.45 227.978-9.75 228.278-10.05 228.778-10.48 229.278-10.9 229.778-11.25L229.778-11.25Q232.278-13.15 233.758-13.68 235.228-14.2 236.278-12.8L236.278-12.8Q236.878-12.25 237.058-11.3 237.228-10.35 237.228-8.75L237.228-8.75Q237.278-8.1 237.358-7.3 237.428-6.5 237.558-5.9 237.678-5.3 237.778-5.15L237.778-5.15Q237.928-4.95 238.328-4.78 238.728-4.6 239.078-4.5L239.078-4.5Q239.778-4.15 239.858-3.23 239.928-2.3 239.128-1.8L239.128-1.8Q238.378-1.35 237.558-1.25 236.728-1.15 235.878-1.2ZM242.228-1.05L242.228-1.05Q242.028-1.45 241.348-1.85 240.678-2.25 240.678-2.45L240.678-2.45Q240.678-2.65 240.458-3.08 240.228-3.5 240.028-3.7L240.028-3.7Q239.778-4 240.178-5.18 240.578-6.35 241.378-8.05 242.178-9.75 243.128-11.5L243.128-11.5Q243.528-11.9 243.928-12.55 244.328-13.2 244.528-13.4L244.528-13.4Q244.528-13.6 244.678-13.78 244.828-13.95 245.028-13.95L245.028-13.95 245.428-14.75Q245.528-14.95 246.058-15.55 246.578-16.15 247.328-16.88 248.078-17.6 248.848-18.25 249.628-18.9 250.128-19.2L250.128-19.2Q251.178-19.9 252.308-19.85 253.428-19.8 254.228-19.15L254.228-19.15Q254.378-19 254.898-18.55 255.428-18.1 256.098-17.55 256.778-17 257.278-16.55L257.278-16.55 259.128-14.9 258.278-12.4Q257.628-10.4 257.958-8.9 258.278-7.4 258.878-6.3L258.878-6.3Q259.128-5.75 259.558-5.45 259.978-5.15 260.678-5.05L260.678-5.05Q261.078-5 261.428-4.75 261.778-4.5 261.778-3.95L261.778-3.95Q261.778-2.75 261.348-2.23 260.928-1.7 260.428-1.6L260.428-1.6Q258.778-1.4 257.278-1.95 255.778-2.5 254.578-4.8L254.578-4.8Q254.378-5.1 254.058-5.93 253.728-6.75 253.678-7L253.678-7Q253.478-6.75 253.148-6.38 252.828-6 252.528-5.7L252.528-5.7Q248.978-2.1 246.458-1.03 243.928 0.05 242.228-1.05ZM244.978-5.2L244.978-5.2Q245.328-5.15 246.078-5.58 246.828-6 248.078-7L248.078-7Q249.778-8.45 250.878-9.4 251.978-10.35 253.028-11.85L253.028-11.85 254.128-13.65Q253.628-14.8 253.228-15.15 252.828-15.5 252.428-15.5L252.428-15.5Q251.778-15.5 250.878-14.68 249.978-13.85 248.848-12.28 247.728-10.7 246.328-8.35L246.328-8.35Q245.678-7.25 245.328-6.23 244.978-5.2 244.978-5.2ZM269.028 10L269.028 10Q267.628 10.55 266.098 9.83 264.578 9.1 263.478 7.55L263.478 7.55Q263.278 7.25 262.878 6.48 262.478 5.7 262.098 4.8 261.728 3.9 261.548 3.25 261.378 2.6 261.528 2.5L261.528 2.5Q261.728 1.95 262.428 1.85 263.128 1.75 263.828 1.93 264.528 2.1 264.628 2.4L264.628 2.4Q264.778 2.75 264.928 3.13 265.078 3.5 265.298 3.83 265.528 4.15 265.728 4.4L265.728 4.4Q266.278 5.25 266.928 5.58 267.578 5.9 267.928 5.65L267.928 5.65Q268.778 5 269.198 4.13 269.628 3.25 270.328 1.05L270.328 1.05Q270.878-0.8 271.278-2.15 271.678-3.5 272.128-4.65L272.128-4.65Q272.278-5.25 272.498-5.68 272.728-6.1 272.928-6.3L272.928-6.3 273.228-6.3Q272.128-5.6 271.378-4.9 270.628-4.2 269.328-3.65L269.328-3.65Q269.028-3.3 267.848-3.23 266.678-3.15 265.578-3.5L265.578-3.5Q264.878-3.9 264.448-4.33 264.028-4.75 263.748-5.3 263.478-5.85 263.178-6.6L263.178-6.6Q262.828-7.35 263.078-9.05 263.328-10.75 263.978-12.45L263.978-12.45Q264.578-13.7 265.728-15.15 266.878-16.6 268.178-17.78 269.478-18.95 270.528-19.25L270.528-19.25Q270.928-19.45 271.928-19.73 272.928-20 273.828-19.75L273.828-19.75Q274.678-19.65 275.128-19.38 275.578-19.1 276.578-18.25L276.578-18.25Q277.228-17.6 278.178-16.57 279.128-15.55 279.378-14.85L279.378-14.85Q279.728-14.1 279.528-13.23 279.328-12.35 278.828-11.7L278.828-11.7Q278.378-11.05 277.878-10.4 277.378-9.75 277.128-8.6L277.128-8.6Q276.878-7.1 276.178-5.23 275.478-3.35 275.078-1.75L275.078-1.75 274.278 1.35Q273.028 5.6 271.528 7.53 270.028 9.45 269.028 10ZM267.978-7.2L267.978-7.2Q268.978-7.25 269.698-7.43 270.428-7.6 271.078-8.22 271.728-8.85 272.578-10.15L272.578-10.15Q273.428-11.35 273.778-12.35 274.128-13.35 274.028-14.6L274.028-14.6Q273.978-15.4 273.578-15.65 273.178-15.9 272.528-15.8L272.528-15.8Q271.578-15.65 270.828-15.03 270.078-14.4 269.078-13.1L269.078-13.1Q268.328-12.1 267.828-10.7L267.828-10.7Q267.328-9.2 267.398-8.3 267.478-7.4 267.978-7.2ZM291.178-1L291.178-1Q289.678-0.15 287.998-0.03 286.328 0.1 284.868-0.48 283.428-1.05 282.528-2.2L282.528-2.2Q282.028-2.85 281.578-4.28 281.118-5.7 281.428-8.15L281.428-8.15Q281.718-10.45 282.848-12.8 283.968-15.15 285.618-16.95 287.278-18.75 289.218-19.4L289.218-19.4Q289.928-19.65 290.648-19.78 291.368-19.9 292.578-19.8L292.578-19.8Q293.718-19.65 294.618-19.23 295.528-18.8 295.928-18.3L295.928-18.3Q296.718-17.5 296.968-16.75 297.218-16 297.178-15.3L297.178-15.3Q296.928-13.7 295.748-11.85 294.578-10 292.468-9.1L292.468-9.1Q291.618-8.75 290.468-8.65 289.328-8.55 287.328-8.95L287.328-8.95Q286.118-9.2 285.748-8.7 285.368-8.2 285.428-6.75L285.428-6.75Q285.528-5.85 285.848-5.18 286.178-4.5 287.078-4.25L287.078-4.25Q288.218-4.05 288.718-4.23 289.218-4.4 289.968-4.75L289.968-4.75Q290.368-5 290.748-5.3 291.118-5.6 291.498-5.9 291.868-6.2 292.118-6.35L292.118-6.35Q292.368-6.55 292.618-6.6 292.868-6.65 293.118-6.65L293.118-6.65Q293.678-6.6 294.178-6.05 294.678-5.5 294.828-5L294.828-5Q294.828-4.6 294.328-3.88 293.828-3.15 292.998-2.38 292.178-1.6 291.178-1ZM290.528-12.15L290.528-12.15Q290.868-12.3 291.548-12.85 292.218-13.4 292.778-14.03 293.328-14.65 293.328-15L293.328-15Q293.328-15.55 292.598-15.95 291.868-16.35 290.718-16.1L290.718-16.1Q290.328-16 289.778-15.55 289.218-15.1 288.678-14.53 288.118-13.95 287.718-13.43 287.328-12.9 287.178-12.6L287.178-12.6Q287.368-12.35 287.968-12.2 288.578-12.05 289.298-12.05 290.028-12.05 290.528-12.15Z" fill="#ca3433" data-fill-palette-color="secondary"></path></g></svg></g></svg></g></svg></g></svg></g><g><svg viewBox="0 0 111.71891711394369 85.02978200710022" height="85.02978200710022" width="111.71891711394369"><g><svg xmlns="http://www.w3.org/2000/svg" xmlns:xlink="http://www.w3.org/1999/xlink" version="1.1" x="0" y="0" viewBox="17.753 34.57753316585347 60.006 45.67084278049484" enable-background="new 0 0 100 100" xml:space="preserve" height="85.02978200710022" width="111.71891711394369" class="icon-icon-0" data-fill-palette-color="accent" id="icon-0"><g fill="#ca3433" data-fill-palette-color="accent"><path fill-rule="evenodd" clip-rule="evenodd" d="M76.421 34.6C72.978 34.928 69.558 35.437 66.238 36.407A132 132 0 0 1 54.03 39.341C49.916 40.127 45.815 40.96 41.659 41.522 37.758 42.048 33.884 42.069 30.02 41.363 28.733 41.128 27.46 40.701 26.246 40.207 24.888 39.655 23.586 38.961 22.295 38.263 20.901 37.509 19.441 37.151 17.753 37.247 17.985 38.309 18.501 39.181 19.315 39.823 20.467 40.723 21.697 41.527 22.868 42.406 25.767 44.588 28.863 46.383 32.371 47.405 32.772 47.52 33.16 47.689 33.592 47.848 33.533 50.348 33.481 52.747 33.424 55.252 32.803 55.302 32.305 55.349 31.804 55.371 31.29 55.396 30.774 55.381 30.26 55.407 29.747 55.432 29.235 55.49 28.72 55.533 28.207 55.575 27.696 55.62 27.184 55.653 26.596 55.696 26.009 55.738 25.421 55.759 24.905 55.778 24.389 55.737 23.877 55.776 23.366 55.816 22.857 55.904 22.356 56.013 21.919 56.109 21.378 55.808 21.016 56.212 21.609 56.92 22.097 57.556 22.645 58.135 23.107 58.624 23.649 58.966 24.407 58.795 26.863 58.234 29.376 58.332 31.87 58.245 32.28 58.232 32.694 58.308 33.168 58.349 33.221 60.764 33.216 63.036 33.334 65.3 33.494 68.384 33.69 71.469 33.979 74.542 34.18 76.68 35.124 78.438 36.981 79.685 37.583 80.088 38.177 80.218 38.83 80.247 39.466 80.275 39.895 79.873 40.367 79.284 39.649 75.936 38.846 72.513 38.61 68.986 38.332 64.8 38.286 59.921 38.676 58.147 40.691 58.108 42.736 58.061 44.78 58.025 48.162 57.97 51.544 57.94 54.926 57.868 56.101 57.843 57.272 57.698 58.446 57.645 59.295 57.61 59.681 57.936 59.793 58.761 59.911 59.633 59.964 60.515 60.075 61.388 60.422 64.162 60.719 66.939 60.507 69.742 60.445 70.55 60.391 71.359 60.407 72.167 60.455 74.3 60.971 76.212 62.819 77.591 63.679 78.234 64.369 78.239 65.13 77.612 65.276 76.608 65.503 75.668 65.532 74.719 65.597 72.523 65.829 70.337 65.468 68.123 64.903 64.665 64.491 61.177 64.007 57.642 64.82 57.239 65.65 57.335 66.427 57.185 67.578 56.964 68.739 56.769 69.865 56.458 70.208 56.365 70.455 55.92 70.772 55.608 70.52 55.347 70.393 55.142 70.213 55.043A4.6 4.6 0 0 0 69.198 54.62C67.696 54.228 66.167 54.08 64.615 54.125 64.048 54.143 63.479 54.057 62.847 54.013 61.74 51.078 62.106 48.047 61.721 45.097 62.914 44.788 63.957 44.379 65.031 44.265 67.276 44.036 69.091 42.755 71.11 41.982 71.608 41.79 71.964 41.477 72.239 40.994 72.488 40.559 72.897 40.213 73.26 39.852 73.875 39.239 74.659 38.734 75.094 38.014 75.587 37.202 76.434 36.876 76.992 36.205 77.266 35.879 77.531 35.544 77.759 35.262 77.476 34.521 76.933 34.549 76.421 34.6M52.176 54.83C49.914 55.019 47.634 55.031 45.363 55.079 43.11 55.124 40.854 55.403 38.505 55.152 38.175 53.047 38.343 51.019 38.102 48.891 38.775 48.891 39.276 48.857 39.769 48.898 43.528 49.207 47.215 48.909 50.862 47.877 52.608 47.385 54.429 47.155 56.211 46.786 56.767 46.672 57.306 46.494 57.99 46.307 58.457 48.944 58.469 51.571 59.019 54.266 56.68 54.868 54.404 54.647 52.176 54.83" fill="#ca3433" data-fill-palette-color="accent"></path></g></svg></g></svg></g></svg></g><defs></defs></svg><rect width="395.52" height="64.47409096347762" fill="none" stroke="none" visibility="hidden"></rect></g></svg></g></svg>